<mxfile host="65bd71144e">
    <diagram id="I9FQbxelefLgMyFjd0UU" name="Page-1">
        <mxGraphModel dx="1696" dy="1948" grid="1" gridSize="10" guides="1" tooltips="1" connect="1" arrows="1" fold="1" page="1" pageScale="1" pageWidth="827" pageHeight="1169" math="0" shadow="0">
            <root>
                <mxCell id="0"/>
                <mxCell id="1" parent="0"/>
                <mxCell id="135" value="" style="swimlane;startSize=0;" parent="1" vertex="1">
                    <mxGeometry x="860" y="80" width="768" height="600" as="geometry"/>
                </mxCell>
                <mxCell id="136" value="" style="rounded=0;whiteSpace=wrap;html=1;" parent="135" vertex="1">
                    <mxGeometry width="360" height="80" as="geometry"/>
                </mxCell>
                <mxCell id="137" value="" style="rounded=0;whiteSpace=wrap;html=1;" parent="135" vertex="1">
                    <mxGeometry width="768" height="600" as="geometry"/>
                </mxCell>
                <mxCell id="143" value="&lt;div style=&quot;text-align: justify; font-size: 16px;&quot;&gt;Villa Bella&lt;/div&gt;&lt;div style=&quot;text-align: justify; font-size: 14px;&quot;&gt;&lt;span style=&quot;background-color: initial;&quot;&gt;&lt;font style=&quot;font-size: 14px;&quot;&gt;Petite villa au coeur de Toulon ...&lt;/font&gt;&lt;/span&gt;&lt;/div&gt;&lt;div style=&quot;text-align: right;&quot;&gt;&lt;span style=&quot;font-size: 20px;&quot;&gt;80 € / pers&lt;/span&gt;&lt;/div&gt;" style="rounded=0;whiteSpace=wrap;html=1;align=left;" parent="135" vertex="1">
                    <mxGeometry x="20" y="340" width="230" height="90" as="geometry"/>
                </mxCell>
                <mxCell id="150" value="&lt;font style=&quot;font-size: 24px;&quot;&gt;Connexion&amp;nbsp; Inscription&amp;nbsp;&amp;nbsp;&lt;/font&gt;" style="rounded=0;whiteSpace=wrap;html=1;align=right;" parent="135" vertex="1">
                    <mxGeometry width="768" height="80" as="geometry"/>
                </mxCell>
                <mxCell id="138" value="Search" style="strokeWidth=1;shadow=0;dashed=0;align=center;html=1;shape=mxgraph.mockup.forms.searchBox;strokeColor=#999999;mainText=;strokeColor2=#008cff;fontColor=#666666;fontSize=17;align=left;spacingLeft=3;" parent="135" vertex="1">
                    <mxGeometry x="81" y="20" width="160" height="40" as="geometry"/>
                </mxCell>
                <mxCell id="140" value="Filtres" style="ellipse;whiteSpace=wrap;html=1;aspect=fixed;" parent="135" vertex="1">
                    <mxGeometry x="257.5" y="17.5" width="45" height="45" as="geometry"/>
                </mxCell>
                <mxCell id="141" value="Logo" style="ellipse;whiteSpace=wrap;html=1;" parent="135" vertex="1">
                    <mxGeometry x="7.5" y="10" width="60" height="60" as="geometry"/>
                </mxCell>
                <mxCell id="218" value="&lt;font style=&quot;font-size: 50px;&quot;&gt;Picture&lt;/font&gt;" style="whiteSpace=wrap;html=1;aspect=fixed;fontSize=20;" vertex="1" parent="135">
                    <mxGeometry x="20" y="100" width="230" height="230" as="geometry"/>
                </mxCell>
                <mxCell id="219" value="&lt;div style=&quot;text-align: justify; font-size: 16px;&quot;&gt;Villa Bella&lt;/div&gt;&lt;div style=&quot;text-align: justify; font-size: 14px;&quot;&gt;&lt;span style=&quot;background-color: initial;&quot;&gt;&lt;font style=&quot;font-size: 14px;&quot;&gt;Petite villa au coeur de Toulon ...&lt;/font&gt;&lt;/span&gt;&lt;/div&gt;&lt;div style=&quot;text-align: right;&quot;&gt;&lt;span style=&quot;font-size: 20px;&quot;&gt;80 € / pers&lt;/span&gt;&lt;/div&gt;" style="rounded=0;whiteSpace=wrap;html=1;align=left;" vertex="1" parent="135">
                    <mxGeometry x="269" y="340" width="230" height="90" as="geometry"/>
                </mxCell>
                <mxCell id="220" value="&lt;font style=&quot;font-size: 50px;&quot;&gt;Picture&lt;/font&gt;" style="whiteSpace=wrap;html=1;aspect=fixed;fontSize=20;" vertex="1" parent="135">
                    <mxGeometry x="269" y="100" width="230" height="230" as="geometry"/>
                </mxCell>
                <mxCell id="221" value="&lt;div style=&quot;text-align: justify; font-size: 16px;&quot;&gt;Villa Bella&lt;/div&gt;&lt;div style=&quot;text-align: justify; font-size: 14px;&quot;&gt;&lt;span style=&quot;background-color: initial;&quot;&gt;&lt;font style=&quot;font-size: 14px;&quot;&gt;Petite villa au coeur de Toulon ...&lt;/font&gt;&lt;/span&gt;&lt;/div&gt;&lt;div style=&quot;text-align: right;&quot;&gt;&lt;span style=&quot;font-size: 20px;&quot;&gt;80 € / pers&lt;/span&gt;&lt;/div&gt;" style="rounded=0;whiteSpace=wrap;html=1;align=left;" vertex="1" parent="135">
                    <mxGeometry x="520" y="340" width="230" height="90" as="geometry"/>
                </mxCell>
                <mxCell id="222" value="&lt;font style=&quot;font-size: 50px;&quot;&gt;Picture&lt;/font&gt;" style="whiteSpace=wrap;html=1;aspect=fixed;fontSize=20;" vertex="1" parent="135">
                    <mxGeometry x="520" y="100" width="230" height="230" as="geometry"/>
                </mxCell>
                <mxCell id="231" value="&#10;&lt;span style=&quot;color: rgb(240, 240, 240); font-family: Helvetica; font-size: 50px; font-style: normal; font-variant-ligatures: normal; font-variant-caps: normal; font-weight: 400; letter-spacing: normal; orphans: 2; text-align: center; text-indent: 0px; text-transform: none; widows: 2; word-spacing: 0px; -webkit-text-stroke-width: 0px; background-color: rgb(42, 37, 47); text-decoration-thickness: initial; text-decoration-style: initial; text-decoration-color: initial; float: none; display: inline !important;&quot;&gt;Picture&lt;/span&gt;&#10;&#10;" style="rounded=0;whiteSpace=wrap;html=1;fontSize=24;" vertex="1" parent="135">
                    <mxGeometry x="20" y="460" width="230" height="140" as="geometry"/>
                </mxCell>
                <mxCell id="232" value="&#10;&lt;span style=&quot;color: rgb(240, 240, 240); font-family: Helvetica; font-size: 50px; font-style: normal; font-variant-ligatures: normal; font-variant-caps: normal; font-weight: 400; letter-spacing: normal; orphans: 2; text-align: center; text-indent: 0px; text-transform: none; widows: 2; word-spacing: 0px; -webkit-text-stroke-width: 0px; background-color: rgb(42, 37, 47); text-decoration-thickness: initial; text-decoration-style: initial; text-decoration-color: initial; float: none; display: inline !important;&quot;&gt;Picture&lt;/span&gt;&#10;&#10;" style="rounded=0;whiteSpace=wrap;html=1;fontSize=24;" vertex="1" parent="135">
                    <mxGeometry x="520" y="460" width="230" height="140" as="geometry"/>
                </mxCell>
                <mxCell id="233" value="&#10;&lt;span style=&quot;color: rgb(240, 240, 240); font-family: Helvetica; font-size: 50px; font-style: normal; font-variant-ligatures: normal; font-variant-caps: normal; font-weight: 400; letter-spacing: normal; orphans: 2; text-align: center; text-indent: 0px; text-transform: none; widows: 2; word-spacing: 0px; -webkit-text-stroke-width: 0px; background-color: rgb(42, 37, 47); text-decoration-thickness: initial; text-decoration-style: initial; text-decoration-color: initial; float: none; display: inline !important;&quot;&gt;Picture&lt;/span&gt;&#10;&#10;" style="rounded=0;whiteSpace=wrap;html=1;fontSize=24;" vertex="1" parent="135">
                    <mxGeometry x="269" y="460" width="230" height="140" as="geometry"/>
                </mxCell>
                <mxCell id="151" value="" style="swimlane;startSize=0;" parent="1" vertex="1">
                    <mxGeometry x="1690" y="80" width="768" height="600" as="geometry"/>
                </mxCell>
                <mxCell id="152" value="" style="rounded=0;whiteSpace=wrap;html=1;" parent="151" vertex="1">
                    <mxGeometry width="360" height="80" as="geometry"/>
                </mxCell>
                <mxCell id="153" value="" style="rounded=0;whiteSpace=wrap;html=1;" parent="151" vertex="1">
                    <mxGeometry width="768" height="600" as="geometry"/>
                </mxCell>
                <mxCell id="213" value="" style="rounded=0;whiteSpace=wrap;html=1;" vertex="1" parent="151">
                    <mxGeometry width="360" height="80" as="geometry"/>
                </mxCell>
                <mxCell id="214" value="&lt;font style=&quot;font-size: 24px;&quot;&gt;Mon compte&amp;nbsp; Déconnexion&amp;nbsp;&amp;nbsp;&lt;/font&gt;" style="rounded=0;whiteSpace=wrap;html=1;align=right;" vertex="1" parent="151">
                    <mxGeometry width="768" height="80" as="geometry"/>
                </mxCell>
                <mxCell id="215" value="Search" style="strokeWidth=1;shadow=0;dashed=0;align=center;html=1;shape=mxgraph.mockup.forms.searchBox;strokeColor=#999999;mainText=;strokeColor2=#008cff;fontColor=#666666;fontSize=17;align=left;spacingLeft=3;" vertex="1" parent="151">
                    <mxGeometry x="81" y="20" width="160" height="40" as="geometry"/>
                </mxCell>
                <mxCell id="216" value="Filtres" style="ellipse;whiteSpace=wrap;html=1;aspect=fixed;" vertex="1" parent="151">
                    <mxGeometry x="257.5" y="17.5" width="45" height="45" as="geometry"/>
                </mxCell>
                <mxCell id="217" value="Logo" style="ellipse;whiteSpace=wrap;html=1;" vertex="1" parent="151">
                    <mxGeometry x="7.5" y="10" width="60" height="60" as="geometry"/>
                </mxCell>
                <mxCell id="234" value="&lt;div style=&quot;text-align: justify; font-size: 16px;&quot;&gt;Villa Bella&lt;/div&gt;&lt;div style=&quot;text-align: justify; font-size: 14px;&quot;&gt;&lt;span style=&quot;background-color: initial;&quot;&gt;&lt;font style=&quot;font-size: 14px;&quot;&gt;Petite villa au coeur de Toulon ...&lt;/font&gt;&lt;/span&gt;&lt;/div&gt;&lt;div style=&quot;text-align: right;&quot;&gt;&lt;span style=&quot;font-size: 20px;&quot;&gt;80 € / pers&lt;/span&gt;&lt;/div&gt;" style="rounded=0;whiteSpace=wrap;html=1;align=left;" vertex="1" parent="151">
                    <mxGeometry x="19" y="340" width="230" height="90" as="geometry"/>
                </mxCell>
                <mxCell id="235" value="&lt;font style=&quot;font-size: 50px;&quot;&gt;Picture&lt;/font&gt;" style="whiteSpace=wrap;html=1;aspect=fixed;fontSize=20;" vertex="1" parent="151">
                    <mxGeometry x="19" y="100" width="230" height="230" as="geometry"/>
                </mxCell>
                <mxCell id="236" value="&lt;div style=&quot;text-align: justify; font-size: 16px;&quot;&gt;Villa Bella&lt;/div&gt;&lt;div style=&quot;text-align: justify; font-size: 14px;&quot;&gt;&lt;span style=&quot;background-color: initial;&quot;&gt;&lt;font style=&quot;font-size: 14px;&quot;&gt;Petite villa au coeur de Toulon ...&lt;/font&gt;&lt;/span&gt;&lt;/div&gt;&lt;div style=&quot;text-align: right;&quot;&gt;&lt;span style=&quot;font-size: 20px;&quot;&gt;80 € / pers&lt;/span&gt;&lt;/div&gt;" style="rounded=0;whiteSpace=wrap;html=1;align=left;" vertex="1" parent="151">
                    <mxGeometry x="268" y="340" width="230" height="90" as="geometry"/>
                </mxCell>
                <mxCell id="237" value="&lt;font style=&quot;font-size: 50px;&quot;&gt;Picture&lt;/font&gt;" style="whiteSpace=wrap;html=1;aspect=fixed;fontSize=20;" vertex="1" parent="151">
                    <mxGeometry x="268" y="100" width="230" height="230" as="geometry"/>
                </mxCell>
                <mxCell id="238" value="&lt;div style=&quot;text-align: justify; font-size: 16px;&quot;&gt;Villa Bella&lt;/div&gt;&lt;div style=&quot;text-align: justify; font-size: 14px;&quot;&gt;&lt;span style=&quot;background-color: initial;&quot;&gt;&lt;font style=&quot;font-size: 14px;&quot;&gt;Petite villa au coeur de Toulon ...&lt;/font&gt;&lt;/span&gt;&lt;/div&gt;&lt;div style=&quot;text-align: right;&quot;&gt;&lt;span style=&quot;font-size: 20px;&quot;&gt;80 € / pers&lt;/span&gt;&lt;/div&gt;" style="rounded=0;whiteSpace=wrap;html=1;align=left;" vertex="1" parent="151">
                    <mxGeometry x="519" y="340" width="230" height="90" as="geometry"/>
                </mxCell>
                <mxCell id="239" value="&lt;font style=&quot;font-size: 50px;&quot;&gt;Picture&lt;/font&gt;" style="whiteSpace=wrap;html=1;aspect=fixed;fontSize=20;" vertex="1" parent="151">
                    <mxGeometry x="519" y="100" width="230" height="230" as="geometry"/>
                </mxCell>
                <mxCell id="240" value="&#10;&lt;span style=&quot;color: rgb(240, 240, 240); font-family: Helvetica; font-size: 50px; font-style: normal; font-variant-ligatures: normal; font-variant-caps: normal; font-weight: 400; letter-spacing: normal; orphans: 2; text-align: center; text-indent: 0px; text-transform: none; widows: 2; word-spacing: 0px; -webkit-text-stroke-width: 0px; background-color: rgb(42, 37, 47); text-decoration-thickness: initial; text-decoration-style: initial; text-decoration-color: initial; float: none; display: inline !important;&quot;&gt;Picture&lt;/span&gt;&#10;&#10;" style="rounded=0;whiteSpace=wrap;html=1;fontSize=24;" vertex="1" parent="151">
                    <mxGeometry x="19" y="460" width="230" height="140" as="geometry"/>
                </mxCell>
                <mxCell id="241" value="&#10;&lt;span style=&quot;color: rgb(240, 240, 240); font-family: Helvetica; font-size: 50px; font-style: normal; font-variant-ligatures: normal; font-variant-caps: normal; font-weight: 400; letter-spacing: normal; orphans: 2; text-align: center; text-indent: 0px; text-transform: none; widows: 2; word-spacing: 0px; -webkit-text-stroke-width: 0px; background-color: rgb(42, 37, 47); text-decoration-thickness: initial; text-decoration-style: initial; text-decoration-color: initial; float: none; display: inline !important;&quot;&gt;Picture&lt;/span&gt;&#10;&#10;" style="rounded=0;whiteSpace=wrap;html=1;fontSize=24;" vertex="1" parent="151">
                    <mxGeometry x="519" y="460" width="230" height="140" as="geometry"/>
                </mxCell>
                <mxCell id="242" value="&#10;&lt;span style=&quot;color: rgb(240, 240, 240); font-family: Helvetica; font-size: 50px; font-style: normal; font-variant-ligatures: normal; font-variant-caps: normal; font-weight: 400; letter-spacing: normal; orphans: 2; text-align: center; text-indent: 0px; text-transform: none; widows: 2; word-spacing: 0px; -webkit-text-stroke-width: 0px; background-color: rgb(42, 37, 47); text-decoration-thickness: initial; text-decoration-style: initial; text-decoration-color: initial; float: none; display: inline !important;&quot;&gt;Picture&lt;/span&gt;&#10;&#10;" style="rounded=0;whiteSpace=wrap;html=1;fontSize=24;" vertex="1" parent="151">
                    <mxGeometry x="268" y="460" width="230" height="140" as="geometry"/>
                </mxCell>
                <mxCell id="160" value="&lt;font style=&quot;font-size: 50px;&quot;&gt;Picture&lt;/font&gt;" style="whiteSpace=wrap;html=1;aspect=fixed;fontSize=20;" parent="151" vertex="1">
                    <mxGeometry x="304" y="130" width="250" height="300" as="geometry"/>
                </mxCell>
                <mxCell id="161" value="&lt;div style=&quot;text-align: justify; font-size: 16px;&quot;&gt;Villa Bella&lt;/div&gt;&lt;div style=&quot;text-align: justify; font-size: 14px;&quot;&gt;&lt;span style=&quot;background-color: initial;&quot;&gt;&lt;font style=&quot;font-size: 14px;&quot;&gt;Petite villa au coeur de Toulon ...&lt;/font&gt;&lt;/span&gt;&lt;/div&gt;&lt;div style=&quot;text-align: right;&quot;&gt;&lt;span style=&quot;font-size: 20px;&quot;&gt;80 € / pers&lt;/span&gt;&lt;/div&gt;" style="rounded=0;whiteSpace=wrap;html=1;align=left;" parent="151" vertex="1">
                    <mxGeometry x="304" y="440" width="250" height="90" as="geometry"/>
                </mxCell>
                <mxCell id="167" value="" style="rounded=1;whiteSpace=wrap;html=1;fontSize=50;" parent="151" vertex="1">
                    <mxGeometry x="34" y="130" width="700" height="420" as="geometry"/>
                </mxCell>
                <mxCell id="168" value="&lt;p style=&quot;line-height: 50%;&quot;&gt;&lt;br&gt;&lt;/p&gt;" style="rounded=0;whiteSpace=wrap;html=1;fontSize=50;" parent="151" vertex="1">
                    <mxGeometry x="34" y="340" width="342" height="100" as="geometry"/>
                </mxCell>
                <mxCell id="169" value="" style="rounded=1;whiteSpace=wrap;html=1;fontSize=30;" parent="151" vertex="1">
                    <mxGeometry x="52" y="380" width="140" height="60" as="geometry"/>
                </mxCell>
                <mxCell id="170" value="&lt;font style=&quot;font-size: 20px;&quot;&gt;€ ---&lt;/font&gt;" style="rounded=0;whiteSpace=wrap;html=1;fontSize=30;align=left;" parent="151" vertex="1">
                    <mxGeometry x="62" y="410" width="120" height="30" as="geometry"/>
                </mxCell>
                <mxCell id="171" value="&lt;font style=&quot;font-size: 20px;&quot;&gt;Minimum&lt;/font&gt;" style="rounded=0;whiteSpace=wrap;html=1;fontSize=30;align=left;" parent="151" vertex="1">
                    <mxGeometry x="62" y="380" width="120" height="30" as="geometry"/>
                </mxCell>
                <mxCell id="172" value="" style="rounded=1;whiteSpace=wrap;html=1;fontSize=30;" parent="151" vertex="1">
                    <mxGeometry x="212" y="380" width="140" height="60" as="geometry"/>
                </mxCell>
                <mxCell id="173" value="&lt;font style=&quot;font-size: 20px;&quot;&gt;€ ---&lt;/font&gt;" style="rounded=0;whiteSpace=wrap;html=1;fontSize=30;align=left;" parent="151" vertex="1">
                    <mxGeometry x="222" y="410" width="120" height="30" as="geometry"/>
                </mxCell>
                <mxCell id="174" value="&lt;font style=&quot;font-size: 20px;&quot;&gt;Maximum&lt;/font&gt;" style="rounded=0;whiteSpace=wrap;html=1;fontSize=30;align=left;" parent="151" vertex="1">
                    <mxGeometry x="222" y="380" width="120" height="30" as="geometry"/>
                </mxCell>
                <mxCell id="175" value="&lt;p style=&quot;line-height: 50%;&quot;&gt;&lt;br&gt;&lt;/p&gt;" style="rounded=0;whiteSpace=wrap;html=1;fontSize=50;" parent="151" vertex="1">
                    <mxGeometry x="34" y="220" width="340" height="100" as="geometry"/>
                </mxCell>
                <mxCell id="176" value="Option 1" style="strokeWidth=1;shadow=0;dashed=0;align=center;html=1;shape=mxgraph.mockup.forms.comboBox;strokeColor=#999999;fillColor=#ddeeff;align=left;fillColor2=#aaddff;mainText=;fontColor=#666666;fontSize=17;spacingLeft=3;" parent="151" vertex="1">
                    <mxGeometry x="69" y="272.5" width="270" height="35" as="geometry"/>
                </mxCell>
                <mxCell id="190" value="Valider" style="strokeWidth=1;shadow=0;dashed=0;align=center;html=1;shape=mxgraph.mockup.buttons.button;strokeColor=#666666;fontColor=#ffffff;mainText=;buttonStyle=round;fontSize=17;fontStyle=1;fillColor=#008cff;whiteSpace=wrap;" parent="151" vertex="1">
                    <mxGeometry x="307" y="475" width="150" height="50" as="geometry"/>
                </mxCell>
                <mxCell id="191" value="&lt;span style=&quot;color: rgb(240, 240, 240); font-family: Helvetica; font-size: 20px; font-style: normal; font-variant-ligatures: normal; font-variant-caps: normal; font-weight: 400; letter-spacing: normal; orphans: 2; text-indent: 0px; text-transform: none; widows: 2; word-spacing: 0px; -webkit-text-stroke-width: 0px; background-color: rgb(42, 37, 47); text-decoration-thickness: initial; text-decoration-style: initial; text-decoration-color: initial; float: none; display: inline !important;&quot;&gt;Fourchette de prix&lt;/span&gt;" style="text;whiteSpace=wrap;html=1;fontSize=20;align=center;" parent="151" vertex="1">
                    <mxGeometry x="107" y="340" width="190" height="30" as="geometry"/>
                </mxCell>
                <mxCell id="194" value="&lt;span style=&quot;color: rgb(240, 240, 240); font-family: Helvetica; font-size: 20px; font-style: normal; font-variant-ligatures: normal; font-variant-caps: normal; font-weight: 400; letter-spacing: normal; orphans: 2; text-indent: 0px; text-transform: none; widows: 2; word-spacing: 0px; -webkit-text-stroke-width: 0px; background-color: rgb(42, 37, 47); text-decoration-thickness: initial; text-decoration-style: initial; text-decoration-color: initial; float: none; display: inline !important;&quot;&gt;Type de Logement&lt;/span&gt;" style="text;whiteSpace=wrap;html=1;fontSize=15;align=center;" parent="151" vertex="1">
                    <mxGeometry x="102" y="232.5" width="200" height="30" as="geometry"/>
                </mxCell>
                <mxCell id="178" value="" style="rounded=0;whiteSpace=wrap;html=1;fontSize=20;" parent="151" vertex="1">
                    <mxGeometry x="382" y="220" width="352" height="100" as="geometry"/>
                </mxCell>
                <mxCell id="179" value="1" style="strokeWidth=1;shadow=0;dashed=0;align=center;html=1;shape=mxgraph.mockup.forms.comboBox;strokeColor=#999999;fillColor=#ddeeff;align=left;fillColor2=#aaddff;mainText=;fontColor=#666666;fontSize=17;spacingLeft=3;" parent="151" vertex="1">
                    <mxGeometry x="514" y="272.5" width="55" height="35" as="geometry"/>
                </mxCell>
                <mxCell id="180" value="Adulte" style="rounded=0;whiteSpace=wrap;html=1;fontSize=25;" parent="151" vertex="1">
                    <mxGeometry x="434" y="272.5" width="75" height="35" as="geometry"/>
                </mxCell>
                <mxCell id="181" value="1" style="strokeWidth=1;shadow=0;dashed=0;align=center;html=1;shape=mxgraph.mockup.forms.comboBox;strokeColor=#999999;fillColor=#ddeeff;align=left;fillColor2=#aaddff;mainText=;fontColor=#666666;fontSize=17;spacingLeft=3;" parent="151" vertex="1">
                    <mxGeometry x="659" y="272.5" width="55" height="35" as="geometry"/>
                </mxCell>
                <mxCell id="182" value="Enfant" style="rounded=0;whiteSpace=wrap;html=1;fontSize=25;" parent="151" vertex="1">
                    <mxGeometry x="579" y="272.5" width="75" height="35" as="geometry"/>
                </mxCell>
                <mxCell id="192" value="&lt;span style=&quot;color: rgb(240, 240, 240); font-family: Helvetica; font-size: 20px; font-style: normal; font-variant-ligatures: normal; font-variant-caps: normal; font-weight: 400; letter-spacing: normal; orphans: 2; text-indent: 0px; text-transform: none; widows: 2; word-spacing: 0px; -webkit-text-stroke-width: 0px; background-color: rgb(42, 37, 47); text-decoration-thickness: initial; text-decoration-style: initial; text-decoration-color: initial; float: none; display: inline !important;&quot;&gt;Nombre de personnes&lt;/span&gt;" style="text;whiteSpace=wrap;html=1;fontSize=15;align=center;" parent="151" vertex="1">
                    <mxGeometry x="454" y="220" width="230" height="30" as="geometry"/>
                </mxCell>
                <mxCell id="183" value="&lt;p style=&quot;line-height: 50%;&quot;&gt;&lt;br&gt;&lt;/p&gt;" style="rounded=0;whiteSpace=wrap;html=1;fontSize=50;" parent="151" vertex="1">
                    <mxGeometry x="382" y="340" width="352" height="100" as="geometry"/>
                </mxCell>
                <mxCell id="184" value="" style="rounded=1;whiteSpace=wrap;html=1;fontSize=30;" parent="151" vertex="1">
                    <mxGeometry x="419" y="375" width="140" height="60" as="geometry"/>
                </mxCell>
                <mxCell id="185" value="&lt;font style=&quot;font-size: 15px;&quot;&gt;jj/mm/YYYY&lt;/font&gt;" style="rounded=0;whiteSpace=wrap;html=1;fontSize=30;align=center;" parent="151" vertex="1">
                    <mxGeometry x="429" y="405" width="120" height="30" as="geometry"/>
                </mxCell>
                <mxCell id="186" value="&lt;font style=&quot;font-size: 20px;&quot;&gt;Du&lt;/font&gt;" style="rounded=0;whiteSpace=wrap;html=1;fontSize=30;align=left;" parent="151" vertex="1">
                    <mxGeometry x="429" y="375" width="120" height="30" as="geometry"/>
                </mxCell>
                <mxCell id="187" value="" style="rounded=1;whiteSpace=wrap;html=1;fontSize=30;" parent="151" vertex="1">
                    <mxGeometry x="579" y="375" width="140" height="60" as="geometry"/>
                </mxCell>
                <mxCell id="188" value="&lt;div style=&quot;text-align: center;&quot;&gt;&lt;span style=&quot;background-color: initial;&quot;&gt;&lt;font style=&quot;font-size: 15px;&quot;&gt;jj/mm/YYYY&lt;/font&gt;&lt;/span&gt;&lt;/div&gt;" style="rounded=0;whiteSpace=wrap;html=1;fontSize=30;align=left;" parent="151" vertex="1">
                    <mxGeometry x="589" y="405" width="120" height="30" as="geometry"/>
                </mxCell>
                <mxCell id="189" value="&lt;font style=&quot;font-size: 20px;&quot;&gt;Au&lt;/font&gt;" style="rounded=0;whiteSpace=wrap;html=1;fontSize=30;align=left;" parent="151" vertex="1">
                    <mxGeometry x="589" y="375" width="120" height="30" as="geometry"/>
                </mxCell>
                <mxCell id="193" value="&lt;span style=&quot;color: rgb(240, 240, 240); font-family: Helvetica; font-size: 20px; font-style: normal; font-variant-ligatures: normal; font-variant-caps: normal; font-weight: 400; letter-spacing: normal; orphans: 2; text-indent: 0px; text-transform: none; widows: 2; word-spacing: 0px; -webkit-text-stroke-width: 0px; background-color: rgb(42, 37, 47); text-decoration-thickness: initial; text-decoration-style: initial; text-decoration-color: initial; float: none; display: inline !important;&quot;&gt;Date du Séjour&lt;/span&gt;" style="text;whiteSpace=wrap;html=1;fontSize=15;align=center;" parent="151" vertex="1">
                    <mxGeometry x="484" y="335" width="170" height="30" as="geometry"/>
                </mxCell>
            </root>
        </mxGraphModel>
    </diagram>
</mxfile>